<svg width="21" height="23" viewBox="0 0 21 23" fill="none" xmlns="http://www.w3.org/2000/svg">
<path d="M12.125 14.0781H0.484375V11.625H12.125C13.2604 11.625 14.1927 11.4427 14.9219 11.0781C15.651 10.7135 16.1875 10.1979 16.5312 9.53125C16.8854 8.86458 17.0625 8.07812 17.0625 7.17188C17.0625 6.43229 16.8958 5.72396 16.5625 5.04688C16.2396 4.36979 15.7135 3.8125 14.9844 3.375C14.2656 2.9375 13.3125 2.71875 12.125 2.71875H6.71875V23H3.71875V0.25H12.125C13.8438 0.25 15.2917 0.546875 16.4688 1.14062C17.6458 1.72396 18.5365 2.53646 19.1406 3.57812C19.7552 4.60938 20.0625 5.79688 20.0625 7.14062C20.0625 8.59896 19.7552 9.84896 19.1406 10.8906C18.5365 11.9219 17.6458 12.7135 16.4688 13.2656C15.2917 13.8073 13.8438 14.0781 12.125 14.0781ZM11.9375 16.2188V18.6875H0.484375V16.2188H11.9375Z" fill="#636366"/>
</svg>
